<?xml version="1.0" encoding="iso-8859-1"?>
<!-- Generator: Adobe Illustrator 19.0.0, SVG Export Plug-In . SVG Version: 6.00 Build 0)  -->
<svg version="1.1" id="Layer_1" xmlns="http://www.w3.org/2000/svg" xmlns:xlink="http://www.w3.org/1999/xlink" x="0px" y="0px"
	 viewBox="0 0 512 512" style="enable-background:new 0 0 512 512;" xml:space="preserve">
<g>
	<path style="fill:#253744;" d="M506.367,384.203c0,11.753-9.528,21.281-21.281,21.281H26.914c-11.753,0-21.281-9.528-21.281-21.281
		v-272.4c0-11.753,9.528-21.281,21.281-21.281h458.172c11.753,0,21.281,9.528,21.281,21.281V384.203L506.367,384.203z"/>
	<path style="fill:#2D404E;" d="M512,381.418c0,0.691-0.56,1.252-1.252,1.252h-6.885c-0.692,0-1.252-0.561-1.252-1.252V303.18
		c0-0.691,0.56-1.251,1.252-1.251h6.885c0.692,0,1.252,0.56,1.252,1.251V381.418z"/>
	<path style="fill:#2D404E;" d="M0,381.418c0,0.691,0.56,1.252,1.252,1.252h6.885c0.692,0,1.252-0.561,1.252-1.252V303.18
		c0-0.691-0.56-1.251-1.252-1.251H1.252c-0.692,0-1.252,0.56-1.252,1.251V381.418z"/>
	<path style="fill:#2D404E;" d="M506.367,392.298c0,11.753-9.528,21.28-21.281,21.28H26.914c-11.753,0-21.281-9.527-21.281-21.28
		V119.896c0-11.753,9.528-21.281,21.281-21.281h458.172c11.753,0,21.281,9.528,21.281,21.281V392.298L506.367,392.298z"/>
	<path style="fill:#586A73;" d="M477.985,315.428c0,7.691-6.237,13.927-13.927,13.927H47.941c-7.689,0-13.927-6.235-13.927-13.927
		V140.711c0-7.691,6.237-13.926,13.927-13.926h416.117c7.689,0,13.927,6.235,13.927,13.926L477.985,315.428L477.985,315.428z"/>
	<path style="fill:#E2E5E7;" d="M39.84,313.135c0,7.49,6.073,13.562,13.562,13.562h405.197c7.488,0,13.562-6.072,13.562-13.562
		v-19.109H39.841L39.84,313.135L39.84,313.135z"/>
	<path style="fill:#E2E5E7;" d="M472.16,143.003c0-7.489-6.073-13.561-13.562-13.561H53.401c-7.488,0-13.562,6.072-13.562,13.561
		v53.013h432.32L472.16,143.003L472.16,143.003z"/>
	<polygon style="fill:#2D404E;" points="406.846,345.741 256,345.741 105.154,345.741 85.751,421.478 256,421.478 426.249,421.478 	
		"/>
	<polygon style="fill:#253744;" points="101.19,342.299 82.83,416.581 85.751,421.478 105.154,345.741 	"/>
	<polygon style="fill:#253744;" points="410.809,342.299 429.17,416.581 426.249,421.478 406.846,345.741 	"/>
	<polygon style="fill:#253744;" points="256,342.299 101.19,342.299 105.154,345.741 256,345.741 406.846,345.741 410.809,342.299 	
		"/>
	<g>
		<circle style="fill:#586A73;" cx="137.911" cy="397.484" r="11.267"/>
		<path style="fill:#E2E5E7;" d="M149.178,397.484c0-6.223-5.045-11.267-11.267-11.267c-2.096,0-4.058,0.571-5.737,1.568
			c0,0-5.529,4.69,2.816,9.698C143.336,402.491,149.178,397.484,149.178,397.484z"/>
	</g>
	<g>
		<circle style="fill:#586A73;" cx="374.089" cy="397.484" r="11.267"/>
		<path style="fill:#E2E5E7;" d="M362.822,397.484c0-6.223,5.045-11.267,11.267-11.267c2.096,0,4.058,0.571,5.737,1.568
			c0,0,5.529,4.69-2.816,9.698C368.664,402.491,362.822,397.484,362.822,397.484z"/>
	</g>
	<g>
		<circle style="fill:#586A73;" cx="186.894" cy="388.444" r="11.267"/>
		<path style="fill:#E2E5E7;" d="M198.161,388.444c0-6.223-5.044-11.267-11.267-11.267c-2.095,0-4.057,0.571-5.736,1.568
			c0,0-5.53,4.69,2.816,9.698C192.32,393.451,198.161,388.444,198.161,388.444z"/>
	</g>
	<g>
		<circle style="fill:#586A73;" cx="325.105" cy="388.444" r="11.266"/>
		<path style="fill:#E2E5E7;" d="M313.839,388.444c0-6.223,5.044-11.267,11.267-11.267c2.095,0,4.057,0.571,5.736,1.568
			c0,0,5.529,4.69-2.816,9.698C319.679,393.451,313.839,388.444,313.839,388.444z"/>
	</g>
	<rect x="105.179" y="196.016" style="fill:#2D404E;" width="301.643" height="98.01"/>
	<rect x="105.179" y="196.016" style="fill:#2D404E;" width="92.982" height="98.01"/>
	<rect x="313.839" y="196.016" style="fill:#2D404E;" width="92.982" height="98.01"/>
	<polygon style="fill:#253744;" points="105.179,196.016 110.783,201.781 110.783,294.026 105.179,294.026 	"/>
	<polygon style="fill:#253744;" points="406.821,196.016 401.217,201.781 401.217,294.026 406.821,294.026 	"/>
	<polygon style="fill:#253744;" points="110.783,201.781 198.161,201.781 198.161,196.016 105.179,196.016 	"/>
	<polygon style="fill:#253744;" points="401.217,201.781 313.839,201.781 313.839,196.016 406.821,196.016 	"/>
	<rect x="198.161" y="196.016" style="fill:#253744;" width="115.678" height="5.765"/>
	<g>
		<circle style="fill:#D1D5D5;" cx="154.183" cy="246.345" r="27.958"/>
		<path style="fill:#E2E5E7;" d="M174.305,252.486v-6.466c-0.002-0.691,0.559-1.251,1.25-1.251l5.382-0.002
			c-0.658-3.687-2.132-7.168-4.262-10.223l-3.786,3.788c-0.49,0.488-1.28,0.488-1.771-0.003l-4.572-4.571
			c-0.488-0.488-0.488-1.281,0-1.77l3.795-3.799c-1.948-1.361-4.107-2.487-6.472-3.288c-1.247-0.422-2.504-0.71-3.762-0.935v5.355
			c0,0.691-0.56,1.252-1.252,1.252h-6.468c-0.691,0-1.252-0.561-1.252-1.252v-5.382c-3.688,0.657-7.17,2.131-10.226,4.262
			l3.789,3.788c0.489,0.489,0.489,1.281-0.001,1.771l-4.572,4.573c-0.489,0.488-1.281,0.489-1.771,0l-3.8-3.798
			c-1.36,1.949-2.486,4.108-3.287,6.473c-0.422,1.247-0.71,2.504-0.936,3.762h5.356c0.691,0,1.252,0.56,1.25,1.254l0.002,6.466
			c0,0.69-0.561,1.251-1.252,1.251l-5.383,0.001c0.656,3.687,2.131,7.17,4.262,10.226l3.787-3.789c0.49-0.49,1.281-0.49,1.771,0.001
			l4.573,4.572c0.489,0.488,0.489,1.28,0,1.771l-3.798,3.799c1.949,1.36,4.108,2.486,6.473,3.287
			c1.247,0.422,2.505,0.711,3.763,0.936l-0.001-5.355c0.001-0.693,0.562-1.252,1.256-1.252h6.466c0.69,0,1.25,0.559,1.25,1.252
			l0.003,5.383c3.687-0.658,7.168-2.133,10.222-4.264l-3.787-3.785c-0.488-0.492-0.488-1.282,0.003-1.773l4.572-4.572
			c0.487-0.488,1.279-0.488,1.769,0l3.799,3.797c1.36-1.949,2.484-4.107,3.285-6.472c0.424-1.247,0.711-2.504,0.936-3.762h-5.354
			C174.863,253.738,174.305,253.18,174.305,252.486z"/>
		<g>
			<g>
				<g>
					<g>
						<path style="fill:#586A73;" d="M158.854,231.69h-6.468c-0.692,0-1.252-0.561-1.252-1.252v-5.355
							c3.027-0.54,6.058-0.546,8.972-0.028v5.383C160.106,231.13,159.545,231.69,158.854,231.69z"/>
						<path style="fill:#586A73;" d="M171.116,239.449l-4.572-4.574c-0.49-0.489-0.49-1.282-0.001-1.771l4.475-4.412
							c2.442,1.705,4.431,4.094,6.181,6.599l-4.312,4.158C172.397,239.939,171.605,239.939,171.116,239.449z"/>
						<path style="fill:#586A73;" d="M174.301,253.607l0.001-6.466c-0.001-0.694,0.559-1.253,1.251-1.253h5.355
							c0.54,3.027,0.547,6.058,0.027,8.972h-5.383C174.86,254.859,174.301,254.298,174.301,253.607z"/>
						<path style="fill:#586A73;" d="M166.542,265.87l4.573-4.572c0.49-0.49,1.281-0.492,1.771-0.002l3.787,3.789
							c-1.704,2.443-3.829,4.605-6.334,6.354l-3.798-3.799C166.053,267.151,166.053,266.358,166.542,265.87z"/>
						<path style="fill:#586A73;" d="M152.384,269.055l6.466,0.001c0.694-0.001,1.254,0.558,1.256,1.25l-0.002,5.355
							c-3.026,0.541-6.059,0.547-8.973,0.027l0.002-5.383C151.133,269.615,151.693,269.053,152.384,269.055z"/>
						<path style="fill:#586A73;" d="M140.121,261.296l4.572,4.572c0.491,0.49,0.491,1.28,0.002,1.771l-3.787,3.787
							c-2.445-1.705-4.606-3.83-6.354-6.336l3.798-3.795C138.841,260.806,139.633,260.806,140.121,261.296z"/>
						<path style="fill:#586A73;" d="M130.305,245.884l5.381,0.001c0.692,0,1.252,0.56,1.251,1.251v6.466
							c0,0.694-0.559,1.253-1.251,1.255h-5.354C129.792,251.829,129.786,248.798,130.305,245.884z"/>
						<path style="fill:#586A73;" d="M144.695,234.875l-4.572,4.571c-0.491,0.492-1.281,0.491-1.771,0.003l-4.201-4.325
							c1.704-2.444,4.244-4.068,6.751-5.818l3.794,3.799C145.184,233.594,145.184,234.385,144.695,234.875z"/>
					</g>
				</g>
			</g>
		</g>
		<g>
			<path style="fill:#D1D5D5;" d="M152.387,230.573h6.468c0.692,0,1.252-0.561,1.252-1.252v-5.355
				c-3.028-0.54-6.058-0.546-8.972-0.027v5.382C151.135,230.012,151.695,230.573,152.387,230.573z"/>
			<path style="fill:#D1D5D5;" d="M140.125,238.332l4.572-4.573c0.49-0.49,0.49-1.282,0.001-1.771l-3.789-3.788
				c-2.442,1.705-4.604,3.829-6.354,6.334l3.8,3.798C138.844,238.82,139.636,238.82,140.125,238.332z"/>
			<path style="fill:#D1D5D5;" d="M136.94,252.49l-0.002-6.466c0.002-0.694-0.559-1.254-1.25-1.254h-5.356
				c-0.54,3.027-0.546,6.058-0.026,8.972l5.383-0.001C136.38,253.741,136.94,253.18,136.94,252.49z"/>
			<path style="fill:#D1D5D5;" d="M144.699,264.751l-4.573-4.572c-0.49-0.491-1.281-0.491-1.771-0.001l-3.787,3.789
				c1.704,2.443,3.829,4.605,6.334,6.354l3.798-3.799C145.188,266.031,145.188,265.24,144.699,264.751z"/>
			<path style="fill:#D1D5D5;" d="M158.857,267.936h-6.466c-0.694,0-1.255,0.559-1.256,1.252l0.001,5.355
				c3.027,0.54,6.059,0.546,8.974,0.027l-0.003-5.383C160.107,268.495,159.548,267.936,158.857,267.936z"/>
			<path style="fill:#D1D5D5;" d="M171.12,260.176l-4.572,4.572c-0.491,0.491-0.491,1.281-0.003,1.773l3.787,3.785
				c2.445-1.704,4.606-3.83,6.355-6.334l-3.799-3.797C172.399,259.689,171.607,259.689,171.12,260.176z"/>
			<path style="fill:#D1D5D5;" d="M180.936,244.767l-5.382,0.002c-0.691,0-1.252,0.56-1.25,1.251v6.466
				c0,0.694,0.559,1.253,1.25,1.255h5.354C181.448,250.712,181.455,247.681,180.936,244.767z"/>
			<path style="fill:#D1D5D5;" d="M166.545,233.757l4.572,4.571c0.491,0.492,1.281,0.491,1.771,0.003l3.786-3.788
				c-1.704-2.444-3.829-4.606-6.335-6.355l-3.795,3.799C166.056,232.475,166.056,233.268,166.545,233.757z"/>
		</g>
	</g>
	<g>
		<circle style="fill:#D1D5D5;" cx="357.817" cy="246.345" r="27.959"/>
		<path style="fill:#E2E5E7;" d="M337.695,252.486v-6.466c0.002-0.691-0.559-1.251-1.25-1.251l-5.382-0.002
			c0.658-3.687,2.132-7.168,4.262-10.223l3.786,3.788c0.49,0.488,1.28,0.488,1.771-0.003l4.572-4.571
			c0.488-0.488,0.488-1.281,0-1.77l-3.795-3.799c1.948-1.361,4.107-2.487,6.472-3.288c1.247-0.422,2.504-0.71,3.762-0.935v5.355
			c0,0.691,0.56,1.252,1.252,1.252h6.468c0.691,0,1.252-0.561,1.252-1.252v-5.382c3.688,0.657,7.17,2.131,10.226,4.262l-3.789,3.788
			c-0.489,0.489-0.489,1.281,0.001,1.771l4.572,4.573c0.489,0.488,1.281,0.489,1.771,0l3.8-3.798
			c1.36,1.949,2.486,4.108,3.287,6.473c0.422,1.247,0.71,2.504,0.936,3.762h-5.356c-0.691,0-1.252,0.56-1.25,1.254l-0.002,6.466
			c0,0.69,0.561,1.251,1.252,1.251l5.383,0.001c-0.656,3.687-2.131,7.17-4.262,10.226l-3.787-3.789
			c-0.49-0.49-1.281-0.49-1.771,0.001l-4.573,4.572c-0.489,0.488-0.489,1.28,0,1.771l3.798,3.799
			c-1.949,1.36-4.108,2.486-6.473,3.287c-1.247,0.422-2.505,0.711-3.763,0.936l0.001-5.355c-0.001-0.693-0.562-1.252-1.256-1.252
			h-6.466c-0.69,0-1.25,0.559-1.25,1.252l-0.003,5.383c-3.687-0.658-7.168-2.133-10.222-4.264l3.787-3.785
			c0.488-0.492,0.488-1.282-0.003-1.773l-4.572-4.572c-0.487-0.488-1.279-0.488-1.769,0l-3.799,3.797
			c-1.36-1.949-2.484-4.107-3.285-6.472c-0.424-1.247-0.711-2.504-0.936-3.762h5.354
			C337.137,253.738,337.695,253.18,337.695,252.486z"/>
		<g>
			<g>
				<g>
					<g>
						<path style="fill:#586A73;" d="M359.613,231.694h-6.468c-0.692,0-1.252-0.561-1.252-1.252v-5.355
							c3.028-0.54,6.058-0.546,8.972-0.028v5.383C360.865,231.133,360.305,231.694,359.613,231.694z"/>
						<path style="fill:#586A73;" d="M371.875,239.453l-4.572-4.574c-0.49-0.489-0.49-1.282-0.001-1.771l4.475-4.412
							c2.442,1.705,4.432,4.094,6.181,6.599l-4.312,4.158C373.156,239.941,372.364,239.94,371.875,239.453z"/>
						<path style="fill:#586A73;" d="M375.059,253.609l0.002-6.466c-0.002-0.694,0.559-1.253,1.25-1.253h5.356
							c0.54,3.027,0.546,6.058,0.026,8.972h-5.383C375.62,254.862,375.059,254.301,375.059,253.609z"/>
						<path style="fill:#586A73;" d="M367.301,265.871l4.573-4.572c0.49-0.49,1.281-0.491,1.771-0.002l3.787,3.789
							c-1.704,2.444-3.829,4.606-6.334,6.354l-3.798-3.799C366.811,267.154,366.811,266.361,367.301,265.871z"/>
						<path style="fill:#586A73;" d="M353.142,269.057h6.466c0.694,0,1.255,0.559,1.256,1.251l-0.001,5.355
							c-3.027,0.54-6.059,0.546-8.974,0.027l0.003-5.384C351.892,269.616,352.452,269.056,353.142,269.057z"/>
						<path style="fill:#586A73;" d="M340.88,261.297l4.572,4.572c0.491,0.49,0.491,1.281,0.003,1.772l-3.787,3.786
							c-2.445-1.705-4.606-3.83-6.355-6.335l3.799-3.796C339.6,260.809,340.392,260.809,340.88,261.297z"/>
						<path style="fill:#586A73;" d="M331.063,245.887l5.382,0.001c0.691,0,1.252,0.56,1.25,1.251v6.466
							c0,0.694-0.559,1.253-1.25,1.255h-5.354C330.552,251.832,330.545,248.802,331.063,245.887z"/>
						<path style="fill:#586A73;" d="M345.455,234.878l-4.572,4.571c-0.491,0.492-1.281,0.491-1.771,0.003l-4.202-4.325
							c1.704-2.444,4.245-4.068,6.751-5.818l3.795,3.799C345.943,233.596,345.943,234.389,345.455,234.878z"/>
					</g>
				</g>
			</g>
		</g>
		<g>
			<path style="fill:#D1D5D5;" d="M359.613,230.573h-6.468c-0.692,0-1.252-0.561-1.252-1.252v-5.355
				c3.028-0.54,6.058-0.546,8.972-0.027v5.382C360.865,230.012,360.305,230.573,359.613,230.573z"/>
			<path style="fill:#D1D5D5;" d="M371.875,238.332l-4.572-4.573c-0.49-0.49-0.49-1.282-0.001-1.771l3.789-3.788
				c2.442,1.705,4.604,3.829,6.354,6.334l-3.8,3.798C373.156,238.82,372.364,238.82,371.875,238.332z"/>
			<path style="fill:#D1D5D5;" d="M375.059,252.49l0.002-6.466c-0.002-0.694,0.559-1.254,1.25-1.254h5.356
				c0.54,3.027,0.546,6.058,0.026,8.972l-5.383-0.001C375.62,253.741,375.059,253.18,375.059,252.49z"/>
			<path style="fill:#D1D5D5;" d="M367.301,264.751l4.573-4.572c0.49-0.491,1.281-0.491,1.771-0.001l3.787,3.789
				c-1.704,2.443-3.829,4.605-6.334,6.354l-3.798-3.799C366.811,266.031,366.811,265.24,367.301,264.751z"/>
			<path style="fill:#D1D5D5;" d="M353.142,267.936h6.466c0.694,0,1.255,0.559,1.256,1.252l-0.001,5.355
				c-3.027,0.54-6.059,0.546-8.974,0.027l0.003-5.383C351.892,268.495,352.452,267.936,353.142,267.936z"/>
			<path style="fill:#D1D5D5;" d="M340.88,260.176l4.572,4.572c0.491,0.491,0.491,1.281,0.003,1.773l-3.787,3.785
				c-2.445-1.704-4.606-3.83-6.355-6.334l3.799-3.797C339.6,259.689,340.392,259.689,340.88,260.176z"/>
			<path style="fill:#D1D5D5;" d="M331.063,244.767l5.382,0.002c0.691,0,1.252,0.56,1.25,1.251v6.466
				c0,0.694-0.559,1.253-1.25,1.255h-5.354C330.552,250.712,330.545,247.681,331.063,244.767z"/>
			<path style="fill:#D1D5D5;" d="M345.455,233.757l-4.572,4.571c-0.491,0.492-1.281,0.491-1.771,0.003l-3.786-3.788
				c1.704-2.444,3.829-4.606,6.335-6.355l3.795,3.799C345.943,232.475,345.943,233.268,345.455,233.757z"/>
		</g>
	</g>
	<path style="fill:#E2E5E7;" d="M313.839,276.057c0,0.69-0.561,1.251-1.252,1.251H199.413c-0.691,0-1.252-0.561-1.252-1.251v-62.592
		c0-0.691,0.561-1.252,1.252-1.252h113.174c0.691,0,1.252,0.561,1.252,1.252L313.839,276.057L313.839,276.057z"/>
	<g>
		<g>
			<g>
				<g>
					<circle style="fill:#253744;" cx="154.182" cy="246.344" r="84.292"/>
					<circle style="fill:#586A73;" cx="154.182" cy="246.344" r="78.867"/>
					<circle style="fill:#253744;" cx="154.182" cy="246.344" r="73.441"/>
					<circle style="fill:#586A73;" cx="154.182" cy="246.344" r="67.599"/>
					<circle style="fill:#253744;" cx="154.182" cy="246.344" r="61.758"/>
					<circle style="fill:#586A73;" cx="154.182" cy="246.344" r="54.784"/>
					<circle style="fill:#253744;" cx="154.182" cy="246.343" r="51.431"/>
				</g>
			</g>
		</g>
		<g>
			<g>
				<g>
					<circle style="fill:#253744;" cx="357.818" cy="246.344" r="84.292"/>
					<circle style="fill:#586A73;" cx="357.818" cy="246.344" r="78.867"/>
					<circle style="fill:#253744;" cx="357.818" cy="246.344" r="73.441"/>
					<circle style="fill:#586A73;" cx="357.818" cy="246.344" r="67.599"/>
					<circle style="fill:#253744;" cx="357.818" cy="246.344" r="61.758"/>
					<circle style="fill:#586A73;" cx="357.818" cy="246.344" r="54.784"/>
					<circle style="fill:#253744;" cx="357.818" cy="246.343" r="51.431"/>
				</g>
			</g>
		</g>
	</g>
	<path style="opacity:0.21;fill:#E2E5E7;enable-background:new    ;" d="M313.839,276.057c0,0.69-0.561,1.251-1.252,1.251H199.413
		c-0.691,0-1.252-0.561-1.252-1.251v-62.592c0-0.691,0.561-1.252,1.252-1.252h113.174c0.691,0,1.252,0.561,1.252,1.252
		L313.839,276.057L313.839,276.057z"/>
	<path style="opacity:0.21;fill:#E2E5E7;enable-background:new    ;" d="M312.587,212.214H199.413c-0.691,0-1.252,0.561-1.252,1.252
		v62.592c0,0.69,0.561,1.251,1.252,1.251l114.426-63.843C313.839,212.773,313.278,212.214,312.587,212.214z"/>
	<path style="fill:#48B19B;" d="M458.598,129.441H53.401c-7.488,0-13.562,6.072-13.562,13.561h432.32
		C472.16,135.514,466.087,129.441,458.598,129.441z"/>
</g>
<g>
</g>
<g>
</g>
<g>
</g>
<g>
</g>
<g>
</g>
<g>
</g>
<g>
</g>
<g>
</g>
<g>
</g>
<g>
</g>
<g>
</g>
<g>
</g>
<g>
</g>
<g>
</g>
<g>
</g>
</svg>
