<?xml version="1.0" encoding="iso-8859-1"?>
<!-- Generator: Adobe Illustrator 19.0.0, SVG Export Plug-In . SVG Version: 6.00 Build 0)  -->
<svg version="1.1" id="Layer_1" xmlns="http://www.w3.org/2000/svg" xmlns:xlink="http://www.w3.org/1999/xlink" x="0px" y="0px"
	 viewBox="0 0 512.002 512.002" style="enable-background:new 0 0 512.002 512.002;" xml:space="preserve">
<g>
	<g>
		<path style="fill:#F2B643;" d="M217.573,460.761c10.529-21.057,14.74-47.729,16.494-60.714
			c1.756-12.985,4.564-22.463,12.111-29.308c7.545-6.845,24.742-13.513,32.814-16.319c8.07-2.807,23.162-8.072,24.742-21.583
			c1.578-13.511-7.371-17.899-19.127-20.53c-11.758-2.633-21.76-7.723-24.041-13.163c-2.283-5.44-4.926-11.979-1.236-20.555
			l-5.924-46.666c0,0-9.861-14.027-35.482-29.119c-25.619-15.092-50.889,4.565-58.258,14.039
			c-7.373,9.476-15.092,41.766-22.111,48.083S115.77,280.34,95.6,280.529c-20.164,0.189-48.945,11.42-73.863,35.636
			c-24.918,24.218-22.812,56.507-18.951,73.002c3.859,16.494,12.984,37.552,47.379,71.946
			c34.393,34.394,62.121,50.891,95.109,50.889C178.265,512,207.044,481.818,217.573,460.761z"/>
	</g>
	<g>
		<path style="fill:#D89932;" d="M173.852,204.696c11.504-6.999,27.719-11.525,44.072-1.893
			c25.621,15.092,35.482,29.119,35.482,29.119l5.924,46.666c-3.689,8.576-1.047,15.114,1.236,20.555
			c2.281,5.44,12.283,10.53,24.041,13.163c11.756,2.631,20.705,7.02,19.127,20.53c-0.908,7.773-6.291,12.816-12.232,16.233
			c0,0,16.969-10.092,19.25-22.201c2.281-12.106-7.545-20.182-17.021-22.637c-9.475-2.457-19.83-5.089-24.918-12.985
			c-5.088-7.897-4.586-15.836,5.691-28.359l-13.447-38.357c0,0-20.674-21.024-36.641-26.112c-15.969-5.09-23.682-4.692-31.938-2.688
			C184.878,197.576,173.852,204.696,173.852,204.696z"/>
	</g>
	<g>
		<path style="fill:#D89932;" d="M224.325,287.12c-15.166-15.168-39.758-15.169-54.926-0.002
			c-15.168,15.168-15.168,39.759,0.002,54.927c15.166,15.168,39.758,15.167,54.924,0
			C239.493,326.876,239.493,302.287,224.325,287.12z M171.856,339.589c-13.811-13.812-13.811-36.202,0-50.014
			c13.811-13.81,36.203-13.811,50.014,0s13.811,36.204,0.002,50.014C208.059,353.4,185.667,353.399,171.856,339.589z"/>
	</g>
	<g>
		<path style="fill:#D89932;" d="M137.556,264.926c-7.02,6.317-21.785,15.414-41.955,15.603
			c-10.973,0.104-24.494,3.477-38.561,10.43c0,0,19.711-13.487,40.242-16.119s22.303-2.639,29.746-5
			C134.468,267.475,137.556,264.926,137.556,264.926z"/>
	</g>
	<g>
		<path style="fill:#D89932;" d="M256.276,364.074c-3.977,2.111-7.576,4.376-10.098,6.664c-7.547,6.845-10.355,16.322-12.111,29.308
			c-1.754,12.985-5.965,39.657-16.494,60.714c-3.035,6.07-7.586,12.896-13.314,19.541c0,0,22.791-22.697,30.861-47.617
			c8.072-24.918,7.818-44.998,11.582-55.1C250.47,367.48,256.276,364.074,256.276,364.074z"/>
	</g>
	<g>
		<path style="fill:#D89932;" d="M113.343,398.384l-0.264-0.263l-38.895-38.895c0,0,0.215,4.889,2.873,9.275
			c2.66,4.387,8.719,17.758,13.523,22.563c3.996,3.996,11.934,11.933,14.498,14.496c0.52,0.521,0.822,0.822,0.822,0.822
			c2.564,2.564,10.502,10.503,14.498,14.498c4.805,4.806,18.174,10.864,22.561,13.522c4.389,2.66,9.275,2.875,9.275,2.875
			L113.343,398.384z"/>
	</g>
	<g>
		<path style="fill:#9D6227;" d="M156.681,435.313c-2.617,2.616-6.861,2.616-9.479,0l-71.068-71.069
			c-2.617-2.617-2.617-6.861,0-9.478l1.227-1.228c2.617-2.618,6.861-2.617,9.477,0.001l71.07,71.068c2.617,2.617,2.617,6.86,0,9.477
			L156.681,435.313z"/>
	</g>
	<g>
		<path style="fill:#9D6227;" d="M111.669,399.776l-32.943-32.941c0,0,8.027,13.555,11.846,18.162
			c3.818,4.606,17.939,17.939,17.939,17.939s13.33,14.121,17.938,17.938c4.607,3.818,18.164,11.846,18.164,11.846L111.669,399.776z"
			/>
	</g>
	<g>
		<path style="fill:#915A26;" d="M80.655,358.063c1.752-1.751,2.137-4.346,1.166-6.473c-1.621,0.065-3.223,0.711-4.461,1.948
			l-1.227,1.228c-1.238,1.238-1.883,2.84-1.949,4.461C76.311,360.194,78.907,359.811,80.655,358.063z"/>
	</g>
	<g>
		<path style="fill:#915A26;" d="M153.386,430.791c1.75-1.751,4.344-2.136,6.471-1.167c-0.066,1.621-0.711,3.223-1.949,4.46
			l-1.227,1.229c-1.238,1.238-2.84,1.882-4.461,1.948C151.251,435.134,151.636,432.539,153.386,430.791z"/>
	</g>
	<g>
		<polygon style="fill:#915A26;" points="100.614,374.902 96.333,377.941 133.784,415.395 136.544,410.832 		"/>
	</g>
	<g>
		<path style="fill:#E2E5E7;" d="M136.544,410.832c-0.486,0.485-1.27,0.486-1.756,0l-34.174-34.175
			c-0.486-0.484-0.486-1.271,0-1.755l0,0c0.484-0.484,1.268-0.485,1.754,0l34.176,34.174
			C137.028,409.563,137.028,410.348,136.544,410.832L136.544,410.832z"/>
	</g>
	<g>
		<path style="fill:#9D6227;" d="M166.173,345.272c-16.922-16.923-16.922-44.457,0.002-61.381c16.922-16.921,44.455-16.923,61.379,0
			c16.922,16.924,16.922,44.458,0,61.381C210.63,362.194,183.097,362.194,166.173,345.272z M225.974,285.473
			c-16.053-16.053-42.17-16.053-58.221-0.001c-16.053,16.052-16.053,42.169,0,58.223c16.051,16.052,42.168,16.05,58.223-0.002
			C242.026,327.641,242.026,301.524,225.974,285.473z"/>
	</g>
	<g>
		<polygon style="fill:#9D6227;" points="429.378,102.602 419.026,92.25 408.675,81.896 200.729,282.823 214.593,296.685 
			228.454,310.546 		"/>
	</g>
	<g>
		<circle style="fill:#2D404E;" cx="196.864" cy="314.582" r="32.634"/>
	</g>
	<g>
		<path style="fill:#C6CBCB;" d="M237.241,301.479c-0.398,0.398-1.045,0.398-1.443-0.001l-25.975-25.975
			c-0.398-0.399-0.398-1.046,0-1.444l0,0c0.398-0.399,1.045-0.398,1.443,0.001l25.975,25.975
			C237.64,300.434,237.642,301.079,237.241,301.479L237.241,301.479z"/>
	</g>
	<g>
		<path style="fill:#C6CBCB;" d="M243.434,295.044c-0.398,0.398-1.041,0.401-1.438,0.006l-25.746-25.746
			c-0.396-0.396-0.393-1.038,0.006-1.437l0,0c0.398-0.399,1.041-0.402,1.436-0.006l25.748,25.746
			C243.837,294.003,243.833,294.646,243.434,295.044L243.434,295.044z"/>
	</g>
	<g>
		<path style="fill:#C6CBCB;" d="M250.079,288.168c-0.398,0.398-1.041,0.404-1.432,0.013l-25.551-25.551
			c-0.393-0.393-0.387-1.033,0.012-1.432l0,0c0.398-0.398,1.039-0.403,1.432-0.012l25.549,25.55
			C250.481,287.128,250.477,287.77,250.079,288.168L250.079,288.168z"/>
	</g>
	<g>
		<path style="fill:#C6CBCB;" d="M257.063,280.939c-0.398,0.397-1.037,0.406-1.424,0.02l-25.295-25.296
			c-0.389-0.39-0.379-1.026,0.018-1.424l0,0c0.398-0.398,1.035-0.407,1.426-0.019l25.295,25.295
			C257.47,279.902,257.462,280.54,257.063,280.939L257.063,280.939z"/>
	</g>
	<g>
		<path style="fill:#C6CBCB;" d="M264.337,273.412c-0.398,0.398-1.035,0.408-1.418,0.024l-25.057-25.056
			c-0.383-0.384-0.371-1.018,0.027-1.416l0,0c0.398-0.397,1.033-0.41,1.416-0.026l25.057,25.056
			C264.745,272.378,264.735,273.014,264.337,273.412L264.337,273.412z"/>
	</g>
	<g>
		<path style="fill:#C6CBCB;" d="M271.981,265.498c-0.398,0.398-1.029,0.413-1.408,0.033l-24.805-24.803
			c-0.379-0.38-0.363-1.011,0.035-1.408l0,0c0.396-0.399,1.029-0.416,1.408-0.036l24.803,24.805
			C272.395,264.469,272.38,265.099,271.981,265.498L271.981,265.498z"/>
	</g>
	<g>
		<path style="fill:#C6CBCB;" d="M280.464,256.722c-0.398,0.398-1.027,0.417-1.402,0.042l-24.521-24.522
			c-0.379-0.376-0.357-1.004,0.041-1.402l0,0c0.398-0.398,1.025-0.418,1.4-0.04l24.521,24.521
			C280.878,255.694,280.862,256.323,280.464,256.722L280.464,256.722z"/>
	</g>
	<g>
		<path style="fill:#C6CBCB;" d="M288.942,247.944c-0.396,0.398-1.023,0.419-1.395,0.048l-24.24-24.24
			c-0.371-0.371-0.352-0.997,0.047-1.395l0,0c0.398-0.398,1.023-0.42,1.396-0.048l24.24,24.239
			C289.362,246.92,289.341,247.547,288.942,247.944L288.942,247.944z"/>
	</g>
	<g>
		<path style="fill:#C6CBCB;" d="M298.196,238.367c-0.398,0.398-1.02,0.425-1.385,0.059l-23.936-23.935
			c-0.367-0.369-0.342-0.988,0.057-1.387l0,0c0.4-0.399,1.02-0.424,1.387-0.056l23.934,23.934
			C298.62,237.35,298.595,237.969,298.196,238.367L298.196,238.367z"/>
	</g>
	<g>
		<path style="fill:#C6CBCB;" d="M308.2,228.014c-0.398,0.398-1.018,0.429-1.377,0.068l-23.605-23.604
			c-0.361-0.361-0.33-0.979,0.068-1.378l0,0c0.398-0.397,1.016-0.428,1.377-0.066l23.602,23.604
			C308.628,227,308.599,227.615,308.2,228.014L308.2,228.014z"/>
	</g>
	<g>
		<path style="fill:#C6CBCB;" d="M318.548,217.307c-0.398,0.397-1.012,0.432-1.367,0.075l-23.264-23.262
			c-0.355-0.355-0.318-0.968,0.08-1.366l0,0c0.396-0.398,1.008-0.433,1.365-0.077l23.262,23.263
			C318.979,216.295,318.946,216.907,318.548,217.307L318.548,217.307z"/>
	</g>
	<g>
		<path style="fill:#C6CBCB;" d="M329.626,205.842c-0.398,0.398-1.006,0.437-1.357,0.086l-22.895-22.895
			c-0.352-0.353-0.312-0.959,0.086-1.357l0,0c0.398-0.398,1.004-0.438,1.357-0.086l22.895,22.895
			C330.063,204.834,330.024,205.443,329.626,205.842L329.626,205.842z"/>
	</g>
	<g>
		<path style="fill:#C6CBCB;" d="M341.483,193.569c-0.398,0.397-1.002,0.442-1.348,0.097l-22.502-22.503
			c-0.346-0.345-0.301-0.949,0.098-1.348l0,0c0.398-0.398,1-0.44,1.346-0.095l22.502,22.502
			C341.925,192.568,341.882,193.172,341.483,193.569L341.483,193.569z"/>
	</g>
	<g>
		<path style="fill:#C6CBCB;" d="M354.073,180.537c-0.4,0.399-0.996,0.449-1.336,0.108l-22.084-22.083
			c-0.338-0.338-0.289-0.937,0.109-1.335l0,0c0.396-0.398,0.994-0.446,1.334-0.107l22.082,22.084
			C354.52,179.545,354.472,180.139,354.073,180.537L354.073,180.537z"/>
	</g>
	<g>
		<path style="fill:#C6CBCB;" d="M367.358,166.8c-0.398,0.397-0.99,0.454-1.322,0.123l-21.658-21.658
			c-0.332-0.334-0.277-0.925,0.121-1.323l0,0c0.398-0.398,0.99-0.453,1.324-0.12l21.656,21.657
			C367.811,165.811,367.755,166.402,367.358,166.8L367.358,166.8z"/>
	</g>
	<g>
		<path style="fill:#C6CBCB;" d="M381.581,152.068c-0.398,0.398-0.984,0.459-1.309,0.134l-21.176-21.174
			c-0.326-0.325-0.264-0.911,0.135-1.31l0,0c0.398-0.398,0.982-0.458,1.309-0.134l21.174,21.175
			C382.04,151.086,381.979,151.67,381.581,152.068L381.581,152.068z"/>
	</g>
	<g>
		<path style="fill:#C6CBCB;" d="M396.485,136.618c-0.396,0.397-0.975,0.466-1.295,0.146l-20.656-20.656
			c-0.316-0.316-0.25-0.896,0.148-1.295l0,0c0.4-0.399,0.979-0.464,1.295-0.147l20.656,20.657
			C396.952,135.641,396.886,136.219,396.485,136.618L396.485,136.618z"/>
	</g>
	<g>
		<path style="fill:#C6CBCB;" d="M412.438,120.107c-0.398,0.398-0.973,0.472-1.279,0.164l-20.131-20.131
			c-0.309-0.309-0.234-0.883,0.164-1.281l0,0c0.396-0.397,0.971-0.47,1.279-0.163l20.131,20.132
			C412.911,119.138,412.837,119.709,412.438,120.107L412.438,120.107z"/>
	</g>
	<g>
		<circle style="fill:#C6CBCB;" cx="272.016" cy="239.259" r="1.303"/>
	</g>
	<g>
		<circle style="fill:#C6CBCB;" cx="301.187" cy="210.089" r="1.302"/>
	</g>
	<g>
		<circle style="fill:#C6CBCB;" cx="323.738" cy="187.537" r="1.302"/>
	</g>
	<g>
		<circle style="fill:#C6CBCB;" cx="349.403" cy="161.873" r="1.303"/>
	</g>
	<g>
		
			<rect x="405.642" y="89.208" transform="matrix(0.7071 0.7071 -0.7071 0.7071 187.5511 -270.6532)" style="fill:#E2E5E7;" width="29.682" height="3.719"/>
	</g>
	<g>
		<path style="fill:#9D6227;" d="M504.548,35.897c-3.424-3.423-14.443-14.443-14.443-14.443s-11.021-11.021-14.441-14.441
			c-3.424-3.423-5.66,0.394-5.66,0.394l-53.916,60.06c0.305,4.78-4.783,11.801-4.783,11.801l10.494,10.494l10.494,10.494
			c0,0,7.02-5.09,11.801-4.782l60.059-53.918C504.151,41.555,507.968,39.318,504.548,35.897z"/>
	</g>
	<g>
		<path style="fill:#9D6227;" d="M511.411,31.415c-0.012-0.045-0.027-0.089-0.043-0.136c-0.098-0.269-0.197-0.428-0.197-0.428
			c-1.58-2.633-3.248-1.141-5.266-2.983s-1.404-7.545-0.877-10.704c0.525-3.159,0.965-6.054,0.088-6.931
			c-0.879-0.878-2.641-1.15-2.641-1.15s-0.273-1.764-1.15-2.641s-3.773-0.438-6.932,0.088c-3.158,0.528-8.861,1.142-10.703-0.877
			c-1.844-2.02-0.35-3.686-2.982-5.265c0,0-0.16-0.1-0.428-0.197c-0.047-0.018-0.092-0.033-0.139-0.047
			c-0.969-0.302-3.053-0.434-5.102,2.825c-2.09,3.33,4.832,9.307,4.832,9.307c3.336,3.335,9.705,9.705,9.705,9.705
			s6.371,6.37,9.705,9.704c0,0,5.977,6.922,9.307,4.83C511.847,34.47,511.716,32.388,511.411,31.415z"/>
	</g>
	<g>
		<path style="fill:#E2E5E7;" d="M471.45,22.016c2.373,2.372,3.291,4.605-1.184,9.608c-4.475,5-35.799,39.745-35.799,39.745
			s-9.477,11.056-13.488,7.304c-4.016-3.75-0.332-9.542,4.801-15.2c5.135-5.659,28.271-30.752,30.992-33.648
			C459.491,26.93,466.143,16.707,471.45,22.016z"/>
	</g>
	<g>
		<path style="fill:#915A26;" d="M425.78,63.474c-5.133,5.658-8.816,11.45-4.801,15.2c4.012,3.752,13.488-7.304,13.488-7.304
			s-6.164,4.235-9.672,0.728C421.724,69.024,425.78,63.474,425.78,63.474z"/>
	</g>
	<g>
		<path style="fill:#915A26;" d="M461.212,24.685c3.078-3.237,6.922-5.986,10.238-2.668c2.373,2.372,3.291,4.605-1.184,9.608
			c0,0,2.301-3.87-0.625-7.38C466.714,20.733,461.212,24.685,461.212,24.685z"/>
	</g>
	<g>
		<polygon style="fill:#D89932;" points="469.266,32.738 461.212,24.685 457.448,29.061 465.411,37.024 		"/>
	</g>
	<g>
		<polygon style="fill:#D89932;" points="454.757,48.858 446.657,40.759 441.845,45.98 450.001,54.136 		"/>
	</g>
	<g>
		<polygon style="fill:#D89932;" points="440.038,65.191 431.774,56.925 427.159,61.961 435.464,70.266 		"/>
	</g>
	<g>
		<path style="fill:#E2E5E7;" d="M489.544,40.108c-2.375-2.373-4.607-3.292-9.609,1.183c-5,4.477-39.748,35.798-39.748,35.798
			s-11.053,9.478-7.301,13.491c3.75,4.015,9.541,0.329,15.199-4.805c5.66-5.132,30.752-28.271,33.646-30.99
			C484.628,52.066,494.852,45.415,489.544,40.108z"/>
	</g>
	<g>
		<path style="fill:#915A26;" d="M448.085,85.776c-5.658,5.134-11.449,8.819-15.199,4.805c-3.752-4.014,7.301-13.491,7.301-13.491
			s-4.232,6.166-0.723,9.675C442.532,89.834,448.085,85.776,448.085,85.776z"/>
	</g>
	<g>
		<path style="fill:#915A26;" d="M486.876,50.347c3.234-3.08,5.986-6.922,2.668-10.238c-2.375-2.373-4.607-3.292-9.609,1.183
			c0,0,3.869-2.303,7.381,0.627C490.827,44.847,486.876,50.347,486.876,50.347z"/>
	</g>
	<g>
		<polygon style="fill:#D89932;" points="478.821,42.292 486.876,50.347 482.499,54.112 474.534,46.147 		"/>
	</g>
	<g>
		<polygon style="fill:#D89932;" points="462.7,56.803 470.8,64.899 465.581,69.714 457.425,61.558 		"/>
	</g>
	<g>
		<polygon style="fill:#D89932;" points="446.37,71.521 454.632,79.785 449.597,84.397 441.294,76.095 		"/>
	</g>
	<g>
		<g>
			<circle style="fill:#D89932;" cx="490.474" cy="58.014" r="2.972"/>
		</g>
		<g>
			<circle style="fill:#D89932;" cx="473.74" cy="72.857" r="2.971"/>
		</g>
		<g>
			<circle style="fill:#D89932;" cx="457.53" cy="87.503" r="2.972"/>
		</g>
	</g>
	<g>
		<g>
			<circle style="fill:#D89932;" cx="453.544" cy="21.084" r="2.972"/>
		</g>
		<g>
			<circle style="fill:#D89932;" cx="438.701" cy="37.818" r="2.973"/>
		</g>
		<g>
			<path style="fill:#D89932;" d="M421.954,51.928c-1.16,1.16-1.162,3.04-0.002,4.202c1.162,1.161,3.043,1.159,4.203-0.001
				c1.158-1.159,1.16-3.04-0.002-4.201C424.993,50.768,423.112,50.769,421.954,51.928z"/>
		</g>
	</g>
	<g>
		
			<rect x="105.023" y="378.649" transform="matrix(0.7071 0.7071 -0.7071 0.7071 299.5556 36.5897)" style="fill:#C6CBCB;" width="1.174" height="2.482"/>
	</g>
	<g>
		
			<rect x="110.309" y="383.893" transform="matrix(0.7063 0.7079 -0.7079 0.7063 305.2072 34.6073)" style="fill:#C6CBCB;" width="1.173" height="2.48"/>
	</g>
	<g>
		
			<rect x="115.096" y="388.746" transform="matrix(0.7075 0.7067 -0.7067 0.7075 309.443 32.3151)" style="fill:#C6CBCB;" width="1.173" height="2.483"/>
	</g>
	<g>
		
			<rect x="121.003" y="394.585" transform="matrix(0.7063 0.7079 -0.7079 0.7063 315.9178 30.1772)" style="fill:#C6CBCB;" width="1.173" height="2.481"/>
	</g>
	<g>
		
			<rect x="125.818" y="399.444" transform="matrix(0.7071 0.7071 -0.7071 0.7071 320.3509 27.9764)" style="fill:#C6CBCB;" width="1.174" height="2.483"/>
	</g>
	<g>
		
			<rect x="131.056" y="404.705" transform="matrix(0.7075 0.7067 -0.7067 0.7075 325.3898 25.7039)" style="fill:#C6CBCB;" width="1.173" height="2.483"/>
	</g>
	<g>
		
			<rect x="411.022" y="80.252" transform="matrix(0.7071 0.7071 -0.7071 0.7071 178.5967 -266.9438)" style="fill:#C6CBCB;" width="1.011" height="3.723"/>
	</g>
	<g>
		
			<rect x="414.337" y="83.585" transform="matrix(0.708 0.7062 -0.7062 0.708 181.4874 -268.0461)" style="fill:#C6CBCB;" width="1.101" height="3.723"/>
	</g>
	<g>
		
			<rect x="418.108" y="87.305" transform="matrix(0.7067 0.7075 -0.7075 0.7067 185.8763 -270.0547)" style="fill:#C6CBCB;" width="1.108" height="3.721"/>
	</g>
	<g>
		
			<rect x="421.808" y="91.152" transform="matrix(0.7067 0.7076 -0.7076 0.7067 189.707 -271.5565)" style="fill:#C6CBCB;" width="1.097" height="3.721"/>
	</g>
	<g>
		
			<rect x="425.496" y="94.837" transform="matrix(0.7067 0.7076 -0.7076 0.7067 193.3959 -273.0838)" style="fill:#C6CBCB;" width="1.094" height="3.721"/>
	</g>
	<g>
		
			<rect x="428.853" y="98.108" transform="matrix(0.708 0.7062 -0.7062 0.708 195.9812 -274.0549)" style="fill:#C6CBCB;" width="1.095" height="3.722"/>
	</g>
	<g>
		<g>
			<g>
				<polygon style="fill:#E2E5E7;" points="95.462,390.248 94.944,389.714 412.622,80.578 433.313,58.483 433.858,58.99 
					413.155,81.1 				"/>
			</g>
		</g>
		<g>
			<g>
				<polygon style="fill:#E2E5E7;" points="121.311,416.097 430.448,98.417 452.567,77.699 453.077,78.245 430.968,98.946 
					121.845,416.615 				"/>
			</g>
		</g>
		<g>
			<g>
				<polygon style="fill:#E2E5E7;" points="100.788,395.569 100.266,395.039 415.956,83.915 451.282,45.404 451.831,45.91 
					416.491,84.43 				"/>
			</g>
		</g>
		<g>
			<g>
				<polygon style="fill:#E2E5E7;" points="115.989,410.771 427.116,95.081 465.649,59.729 466.155,60.277 427.632,95.617 
					116.518,411.292 				"/>
			</g>
		</g>
		<g>
			<g>
				<polygon style="fill:#E2E5E7;" points="105.813,400.383 105.288,399.854 419.638,87.597 466.583,30.107 467.159,30.578 
					420.188,88.099 				"/>
			</g>
		</g>
		<g>
			<g>
				<polygon style="fill:#E2E5E7;" points="111.177,405.746 423.433,91.396 480.981,44.399 481.452,44.975 423.933,91.946 
					111.706,406.272 				"/>
			</g>
		</g>
	</g>
</g>
<g>
</g>
<g>
</g>
<g>
</g>
<g>
</g>
<g>
</g>
<g>
</g>
<g>
</g>
<g>
</g>
<g>
</g>
<g>
</g>
<g>
</g>
<g>
</g>
<g>
</g>
<g>
</g>
<g>
</g>
</svg>
