<?xml version="1.0" encoding="iso-8859-1"?>
<!-- Generator: Adobe Illustrator 19.0.0, SVG Export Plug-In . SVG Version: 6.00 Build 0)  -->
<svg version="1.1" id="Layer_1" xmlns="http://www.w3.org/2000/svg" xmlns:xlink="http://www.w3.org/1999/xlink" x="0px" y="0px"
	 viewBox="0 0 512 512" style="enable-background:new 0 0 512 512;" xml:space="preserve">
<g>
	<rect x="237.959" y="334.447" style="fill:#E2E5E7;" width="36.08" height="98.896"/>
	<rect x="237.959" y="334.447" style="fill:#D1D5D5;" width="11.887" height="98.896"/>
	<rect x="139.17" y="145.747" style="fill:#2D404E;" width="233.66" height="3.281"/>
	<path style="fill:#E2E5E7;" d="M347.271,229.875c0,34.031-27.045,61.62-60.408,61.62h-61.727c-33.363,0-60.408-27.589-60.408-61.62
		V61.62c0-34.031,27.045-61.62,60.408-61.62h61.727c33.363,0,60.408,27.589,60.408,61.62V229.875z"/>
	<path style="fill:#2D404E;" d="M235.586,77.291c0,0,6.137-0.944,6.137-6.66s-6.033-8.81-6.033-8.81h-65.23v15.47
		C170.46,77.291,235.586,77.291,235.586,77.291z"/>
	<path style="fill:#C6CBCB;" d="M244.5,70.631c0-4.866-3.943-8.81-8.811-8.81c0,0,6.033,3.094,6.033,8.81s-6.137,6.66-6.137,6.66
		h-65.127v-15.47h-5.73V79.44h70.961C240.557,79.44,244.5,75.496,244.5,70.631z"/>
	<path style="fill:#2D404E;" d="M235.586,107.337c0,0,6.137-0.943,6.137-6.659c0-5.717-6.033-8.81-6.033-8.81h-65.23v15.469
		C170.46,107.337,235.586,107.337,235.586,107.337z"/>
	<path style="fill:#C6CBCB;" d="M244.5,100.678c0-4.866-3.943-8.81-8.811-8.81c0,0,6.033,3.093,6.033,8.81
		c0,5.716-6.137,6.659-6.137,6.659h-65.127V91.868h-5.73v17.619h70.961C240.557,109.487,244.5,105.543,244.5,100.678z"/>
	<path style="fill:#2D404E;" d="M235.428,137.384c1.266-3.49,3.279-6.618,5.877-9.168c-1.354-4.103-5.615-6.301-5.615-6.301h-65.23
		v15.469H235.428L235.428,137.384z"/>
	<path style="fill:#C6CBCB;" d="M241.305,128.216c0.65-0.641,1.346-1.235,2.066-1.8c-1.51-2.685-4.381-4.501-7.682-4.501
		C235.689,121.915,239.951,124.113,241.305,128.216z"/>
	<path style="fill:#2D404E;" d="M235.586,167.431c0,0,4.25-0.666,5.672-4.193c-3.098-3.057-5.363-6.937-6.496-11.276h-64.303v15.47
		L235.586,167.431L235.586,167.431z"/>
	<path style="fill:#2D404E;" d="M235.586,197.478c0,0,6.137-0.944,6.137-6.66s-6.033-8.81-6.033-8.81h-65.23v15.47H235.586z"/>
	<path style="fill:#C6CBCB;" d="M235.689,182.008c0,0,6.033,3.094,6.033,8.81s-6.137,6.66-6.137,6.66h-65.127v-15.47h-5.73v17.619
		h70.961c4.867,0,8.811-3.944,8.811-8.81S240.557,182.008,235.689,182.008z"/>
	<path style="fill:#2D404E;" d="M235.586,227.524c0,0,6.137-0.944,6.137-6.66c0-5.717-6.033-8.81-6.033-8.81h-65.23v15.47H235.586z"
		/>
	<path style="fill:#C6CBCB;" d="M235.689,212.055c0,0,6.033,3.093,6.033,8.81c0,5.716-6.137,6.66-6.137,6.66h-65.127v-15.47h-5.73
		v17.619h70.961c4.867,0,8.811-3.944,8.811-8.81S240.557,212.055,235.689,212.055z"/>
	<path style="fill:#C6CBCB;" d="M240.857,125.929c0,0-5.504,4.48-7.814,11.455h-62.584v-15.469h-5.73v17.618h70.033
		c0.189-0.731,0.412-1.446,0.666-2.149c1.266-3.49,3.279-6.618,5.877-9.168L240.857,125.929z"/>
	<path style="fill:#C6CBCB;" d="M241.258,163.237c-3.098-3.057-5.363-6.937-6.496-11.276h-2.428
		c1.018,6.858,5.723,11.733,7.498,13.358c-1.801,1.725-4.246,2.111-4.246,2.111h-65.127v-15.47h-5.73v17.619h70.961
		c3.301,0,6.172-1.816,7.682-4.502C242.635,164.501,241.922,163.894,241.258,163.237z"/>
	<path style="fill:#2D404E;" d="M276.414,77.291c0,0-6.135-0.944-6.135-6.66s6.031-8.81,6.031-8.81h65.23v15.47
		C341.54,77.291,276.414,77.291,276.414,77.291z"/>
	<path style="fill:#C6CBCB;" d="M267.502,70.631c0-4.866,3.943-8.81,8.809-8.81c0,0-6.031,3.094-6.031,8.81s6.135,6.66,6.135,6.66
		h65.127v-15.47h5.732V79.44h-70.963C271.445,79.44,267.502,75.496,267.502,70.631z"/>
	<path style="fill:#2D404E;" d="M276.414,107.337c0,0-6.135-0.943-6.135-6.659c0-5.717,6.031-8.81,6.031-8.81h65.23v15.469
		C341.54,107.337,276.414,107.337,276.414,107.337z"/>
	<path style="fill:#C6CBCB;" d="M267.502,100.678c0-4.866,3.943-8.81,8.809-8.81c0,0-6.031,3.093-6.031,8.81
		c0,5.716,6.135,6.659,6.135,6.659h65.127V91.868h5.732v17.619h-70.963C271.445,109.487,267.502,105.543,267.502,100.678z"/>
	<path style="fill:#2D404E;" d="M276.572,137.384c-1.264-3.49-3.279-6.618-5.875-9.168c1.354-4.103,5.613-6.301,5.613-6.301h65.23
		v15.469H276.572L276.572,137.384z"/>
	<path style="fill:#C6CBCB;" d="M270.697,128.216c-0.652-0.641-1.348-1.235-2.066-1.8c1.51-2.685,4.381-4.501,7.68-4.501
		C276.311,121.915,272.051,124.113,270.697,128.216z"/>
	<path style="fill:#2D404E;" d="M276.414,167.431c0,0-4.25-0.666-5.67-4.193c3.096-3.057,5.363-6.937,6.496-11.276h64.301v15.47
		L276.414,167.431L276.414,167.431z"/>
	<path style="fill:#2D404E;" d="M276.414,197.478c0,0-6.135-0.944-6.135-6.66s6.031-8.81,6.031-8.81h65.23v15.47H276.414z"/>
	<path style="fill:#C6CBCB;" d="M276.311,182.008c0,0-6.031,3.094-6.031,8.81s6.135,6.66,6.135,6.66h65.127v-15.47h5.732v17.619
		h-70.963c-4.865,0-8.809-3.944-8.809-8.81S271.445,182.008,276.311,182.008z"/>
	<path style="fill:#2D404E;" d="M276.414,227.524c0,0-6.135-0.944-6.135-6.66c0-5.717,6.031-8.81,6.031-8.81h65.23v15.47H276.414z"
		/>
	<path style="fill:#C6CBCB;" d="M276.311,212.055c0,0-6.031,3.093-6.031,8.81c0,5.716,6.135,6.66,6.135,6.66h65.127v-15.47h5.732
		v17.619h-70.963c-4.865,0-8.809-3.944-8.809-8.81C267.502,215.998,271.445,212.055,276.311,212.055z"/>
	<path style="fill:#C6CBCB;" d="M271.145,125.929c0,0,5.504,4.48,7.814,11.455h62.582v-15.469h5.732v17.618H277.24
		c-0.191-0.731-0.412-1.446-0.668-2.149c-1.264-3.49-3.279-6.618-5.875-9.168L271.145,125.929z"/>
	<path style="fill:#C6CBCB;" d="M270.744,163.237c3.096-3.057,5.363-6.937,6.496-11.276h2.426
		c-1.016,6.858-5.723,11.733-7.496,13.358c1.801,1.725,4.244,2.111,4.244,2.111h65.127v-15.47h5.732v17.619H276.31
		c-3.299,0-6.17-1.816-7.68-4.502C269.367,164.501,270.078,163.894,270.744,163.237z"/>
	<g>
		<path style="fill:#2D404E;" d="M209.574,50.027c5.146,0,9.32-4.883,9.32-10.905V0.327c-6.588,0.689-12.854,2.474-18.641,5.146
			v33.648C200.254,45.145,204.426,50.027,209.574,50.027z"/>
		<path style="fill:#2D404E;" d="M240.525,50.027c5.146,0,9.32-4.883,9.32-10.905V0h-18.641v39.122
			C231.205,45.145,235.377,50.027,240.525,50.027z"/>
		<path style="fill:#2D404E;" d="M271.477,50.027c5.146,0,9.32-4.883,9.32-10.905V0h-18.641v39.122
			C262.156,45.145,266.33,50.027,271.477,50.027z"/>
		<path style="fill:#2D404E;" d="M302.428,50.027c5.146,0,9.32-4.883,9.32-10.905V5.476c-5.787-2.675-12.055-4.459-18.641-5.148
			v38.795C293.107,45.145,297.281,50.027,302.428,50.027z"/>
		<path style="fill:#C6CBCB;" d="M218.895,5.977V0.328c-6.588,0.689-12.854,2.474-18.641,5.146v33.648
			c0,6.022,4.172,10.905,9.32,10.905c5.146,0,9.32-4.883,9.32-10.905c0,0-1.158,7.757-8.479,7.757c-7.318,0-6.92-6.922-6.92-9.91
			c0-2.989,0-26.586,0-26.586S208.529,5.82,218.895,5.977z"/>
		<path style="fill:#C6CBCB;" d="M293.107,5.977V0.328c6.586,0.689,12.854,2.474,18.641,5.146v33.648
			c0,6.022-4.174,10.905-9.32,10.905s-9.32-4.883-9.32-10.905c0,0,1.158,7.757,8.477,7.757s6.922-6.922,6.922-9.91
			c0-2.989,0-26.586,0-26.586S303.473,5.82,293.107,5.977z"/>
		<path style="fill:#C6CBCB;" d="M249.846,4.718V0h-18.641v39.122c0,6.022,4.172,10.905,9.32,10.905c5.146,0,9.32-4.883,9.32-10.905
			c0,0-0.449,7.442-8.123,7.442c-7.676,0-7.395-7.236-7.395-7.236V4.72C234.328,4.72,242.711,3.301,249.846,4.718z"/>
		<path style="fill:#C6CBCB;" d="M262.156,4.718V0h18.641v39.122c0,6.022-4.174,10.905-9.32,10.905s-9.32-4.883-9.32-10.905
			c0,0,0.447,7.442,8.123,7.442s7.393-7.236,7.393-7.236V4.72C277.672,4.72,269.291,3.301,262.156,4.718z"/>
	</g>
	<g>
		<path style="fill:#2D404E;" d="M209.574,241.467c5.146,0,9.32,4.883,9.32,10.906v38.795c-6.588-0.689-12.854-2.474-18.641-5.147
			v-33.647C200.254,246.35,204.426,241.467,209.574,241.467z"/>
		<path style="fill:#2D404E;" d="M240.525,241.467c5.146,0,9.32,4.883,9.32,10.906v39.122h-18.641v-39.122
			C231.205,246.35,235.377,241.467,240.525,241.467z"/>
		<path style="fill:#2D404E;" d="M271.477,241.467c5.146,0,9.32,4.883,9.32,10.906v39.122h-18.641v-39.122
			C262.156,246.35,266.33,241.467,271.477,241.467z"/>
		<path style="fill:#2D404E;" d="M302.428,241.467c5.146,0,9.32,4.883,9.32,10.906v33.646c-5.787,2.675-12.055,4.459-18.641,5.148
			v-38.795C293.107,246.35,297.281,241.467,302.428,241.467z"/>
		<path style="fill:#C6CBCB;" d="M218.895,285.519v5.649c-6.746-0.454-13.143-2.341-18.641-5.147v-33.647
			c0-6.023,4.172-10.906,9.32-10.906c5.146,0,9.32,4.883,9.32,10.906c0,0-1.158-7.757-8.479-7.757c-7.318,0-6.92,6.921-6.92,9.91
			s0,26.586,0,26.586S208.529,285.674,218.895,285.519z"/>
		<path style="fill:#C6CBCB;" d="M293.107,285.519v5.649c6.715-0.455,12.854-2.474,18.641-5.147v-33.647
			c0-6.023-4.174-10.906-9.32-10.906s-9.32,4.883-9.32,10.906c0,0,1.158-7.757,8.477-7.757s6.922,6.921,6.922,9.91
			s0,26.586,0,26.586S303.473,285.674,293.107,285.519z"/>
		<path style="fill:#C6CBCB;" d="M249.846,286.776v4.719h-18.641v-39.122c0-6.023,4.172-10.906,9.32-10.906
			c5.146,0,9.32,4.883,9.32,10.906c0,0-0.449-7.442-8.123-7.442c-7.676,0-7.395,7.236-7.395,7.236v34.608
			C234.328,286.775,242.711,288.193,249.846,286.776z"/>
		<path style="fill:#C6CBCB;" d="M262.156,286.776v4.719h18.641v-39.122c0-6.023-4.174-10.906-9.32-10.906s-9.32,4.883-9.32,10.906
			c0,0,0.447-7.442,8.123-7.442s7.393,7.236,7.393,7.236v34.608C277.672,286.775,269.291,288.193,262.156,286.776z"/>
	</g>
	<circle style="fill:#D1D5D5;" cx="255.999" cy="145.747" r="18.04"/>
	<path style="fill:#2D404E;" d="M353.324,133.241v143.315c0,23.594-19.195,42.788-42.789,42.788h-109.07
		c-23.594,0-42.789-19.194-42.789-42.788V133.241h-15.102v143.315c0,31.972,25.918,57.891,57.891,57.891h109.07
		c31.973,0,57.891-25.919,57.891-57.891V133.241H353.324z"/>
	<rect x="233.346" y="433.343" style="fill:#586A73;" width="45.307" height="3.566"/>
	<path style="fill:#2D404E;" d="M285.744,483.683c-0.838-5.453-5.662-46.773-5.662-46.773H256h-24.082c0,0-4.824,41.32-5.664,46.773
		s1.678,5.244,1.678,5.244H256h28.066C284.066,488.927,286.584,489.136,285.744,483.683z"/>
	<path style="fill:#2D404E;" d="M364.02,502.98c0,4.981-4.037,9.02-9.02,9.02H156.996c-4.98,0-9.02-4.038-9.02-9.02l0,0
		c0-4.981,4.039-9.02,9.02-9.02H355C359.982,493.961,364.02,497.999,364.02,502.98L364.02,502.98z"/>
	<path style="opacity:0.16;fill:#2D404E;enable-background:new    ;" d="M185.354,61.821c0-21.526,2.398-38.338,5.271-50.763
		c-15.648,11.135-25.896,29.623-25.896,50.562v168.255c0,22.222,11.535,41.69,28.828,52.531
		c-3.959-12.262-8.203-30.572-8.203-52.732C185.354,188.159,185.354,115.471,185.354,61.821z"/>
	<path style="opacity:0.16;fill:#2D404E;enable-background:new    ;" d="M326.648,61.821c0-21.526-2.4-38.338-5.271-50.763
		c15.648,11.135,25.896,29.623,25.896,50.562v168.255c0,22.222-11.537,41.69-28.828,52.531c3.959-12.262,8.203-30.572,8.203-52.732
		C326.648,188.159,326.648,115.471,326.648,61.821z"/>
	<circle style="fill:#C6CBCB;" cx="255.999" cy="145.747" r="15.622"/>
	<rect x="237.959" y="431.606" style="fill:#C6CBCB;" width="36.08" height="1.736"/>
	<path style="fill:#253744;" d="M231.918,436.909c0,0-4.824,41.32-5.664,46.773s1.678,5.244,1.678,5.244h12.309l3.428-52.018
		L231.918,436.909L231.918,436.909z"/>
	<rect x="233.346" y="433.343" style="fill:#2D404E;" width="9.215" height="3.566"/>
</g>
<g>
</g>
<g>
</g>
<g>
</g>
<g>
</g>
<g>
</g>
<g>
</g>
<g>
</g>
<g>
</g>
<g>
</g>
<g>
</g>
<g>
</g>
<g>
</g>
<g>
</g>
<g>
</g>
<g>
</g>
</svg>
