<?xml version="1.0" encoding="iso-8859-1"?>
<!-- Generator: Adobe Illustrator 19.0.0, SVG Export Plug-In . SVG Version: 6.00 Build 0)  -->
<svg version="1.1" id="Layer_1" xmlns="http://www.w3.org/2000/svg" xmlns:xlink="http://www.w3.org/1999/xlink" x="0px" y="0px"
	 viewBox="0 0 512 512" style="enable-background:new 0 0 512 512;" xml:space="preserve">
<g>
	<path style="fill:#E2E5E7;" d="M30.155,419.434c0,0-14.868,22.377-2.888,46.896c11.656,23.854,42.708,22.241,47.986,17.913
		L30.155,419.434z"/>
	
		<ellipse transform="matrix(-0.869 0.4948 -0.4948 -0.869 334.307 801.3241)" style="fill:#C6CBCB;" cx="61.082" cy="444.914" rx="30.505" ry="42.35"/>
	
		<ellipse transform="matrix(-0.869 0.4948 -0.4948 -0.869 345.6545 792.0622)" style="fill:#E2E5E7;" cx="67.981" cy="441.786" rx="22.936" ry="35.288"/>
	
		<ellipse transform="matrix(-0.869 0.4948 -0.4948 -0.869 351.6759 786.1447)" style="fill:#2D404E;" cx="71.775" cy="439.624" rx="18.705" ry="28.789"/>
	<path style="fill:#253744;" d="M75.377,465.812c3.812,0.937,7.499,0.632,10.619-1.146c8.979-5.111,9.878-20.455,2.011-34.272
		s-21.521-20.876-30.499-15.763c-4.048,2.304-6.453,6.688-7.153,12.073c0,0,5.021-8.327,17.6,0
		c12.577,8.327,15.206,19.153,16.624,28.558S75.377,465.812,75.377,465.812z"/>
	<g>
		<path style="fill:#C6CBCB;" d="M476.78,443.963l-1.476-4.306c1.931-0.662,10.031-8.737,9.522-14.445
			c-0.123-1.376-1.41-2.541-2.468-3.276c-6.953-4.829-25.627-6.669-44.849-1.401c-25.344,6.949-52.714,8.428-52.988,8.442
			l-0.234-4.545c0.269-0.014,27.165-1.472,52.02-8.286c21.508-5.899,40.751-3.431,48.647,2.052c3.362,2.335,4.253,4.884,4.406,6.61
			C490.113,433.232,480.132,442.813,476.78,443.963z"/>
	</g>
	<path style="fill:#EB8923;" d="M405.73,466.553c0,16.031-14.485,29.027-32.354,29.027H114.558
		c-17.869,0-32.354-12.996-32.354-29.027V29.027C82.204,12.998,96.689,0,114.558,0h258.817c17.869,0,32.354,12.998,32.354,29.027
		v437.526H405.73z"/>
	<path style="fill:#E2E5E7;" d="M382.041,242.89c0,2.707-2.038,4.9-4.553,4.9H110.443c-2.513,0-4.552-2.193-4.552-4.9V33.797
		c0-2.707,2.039-4.9,4.552-4.9h267.045c2.515,0,4.553,2.193,4.553,4.9L382.041,242.89L382.041,242.89z"/>
	<circle style="fill:#C6CBCB;" cx="243.966" cy="365.64" r="101.082"/>
	
		<ellipse transform="matrix(-0.9806 -0.1958 0.1958 -0.9806 624.9312 1000.4009)" style="fill:#2D404E;" cx="361.916" cy="469.31" rx="4.553" ry="37.161"/>
	<path style="fill:#E2E5E7;" d="M480.258,437.881c-2.178-2.971-8.952-9.631-16.418-3.569c-7.465,6.063-32.887,27.729-42.445,33.96
		s-15.997-9.261-20.205-20.646c-4.21-11.386-17.396-16.766-17.396-16.766L361.9,511.869c11.095-0.295,35.29-3.383,43.829-6.539
		c13.342-4.935,28.125-16.414,29.426-17.343c4.691-3.352,37.134-29.366,43.197-34.843
		C484.416,447.666,482.435,440.851,480.258,437.881z"/>
	<path style="fill:#C6CBCB;" d="M444.388,450.419c8.129-6.677,15.865-13.193,19.452-16.107c7.466-6.062,14.24,0.599,16.418,3.569
		c2.177,2.97,4.158,9.785-1.905,15.264c-2.896,2.612-11.796,9.905-20.823,17.178c0,0,4.626-9.941-2.559-16.244
		C450.512,450.164,444.388,450.419,444.388,450.419z"/>
	<g>
		<rect x="312.831" y="223.765" style="fill:#C6CBCB;" width="48.387" height="14.891"/>
		<rect x="312.831" y="201.432" style="fill:#C6CBCB;" width="48.387" height="14.891"/>
		<rect x="312.831" y="179.1" style="fill:#C6CBCB;" width="48.387" height="14.889"/>
		<rect x="250.793" y="223.765" style="fill:#C6CBCB;" width="48.389" height="14.891"/>
		<rect x="250.793" y="201.432" style="fill:#C6CBCB;" width="48.389" height="14.891"/>
		<rect x="250.793" y="179.1" style="fill:#C6CBCB;" width="48.389" height="14.889"/>
		<rect x="250.793" y="156.765" style="fill:#C6CBCB;" width="48.389" height="14.889"/>
		<rect x="250.793" y="134.433" style="fill:#C6CBCB;" width="48.389" height="14.888"/>
		<rect x="250.793" y="112.097" style="fill:#C6CBCB;" width="48.389" height="14.89"/>
		<rect x="188.751" y="223.765" style="fill:#C6CBCB;" width="48.389" height="14.891"/>
		<rect x="188.751" y="201.432" style="fill:#C6CBCB;" width="48.389" height="14.891"/>
		<rect x="188.751" y="179.1" style="fill:#C6CBCB;" width="48.389" height="14.889"/>
		<rect x="188.751" y="156.765" style="fill:#C6CBCB;" width="48.389" height="14.889"/>
		<rect x="188.751" y="134.433" style="fill:#C6CBCB;" width="48.389" height="14.888"/>
		<rect x="188.751" y="112.097" style="fill:#C6CBCB;" width="48.389" height="14.89"/>
		<rect x="188.751" y="89.765" style="fill:#C6CBCB;" width="48.389" height="14.889"/>
		<rect x="188.751" y="67.431" style="fill:#C6CBCB;" width="48.389" height="14.89"/>
		<rect x="188.751" y="45.098" style="fill:#C6CBCB;" width="48.389" height="14.888"/>
		<rect x="126.713" y="223.765" style="fill:#C6CBCB;" width="48.389" height="14.891"/>
		<rect x="126.713" y="201.432" style="fill:#C6CBCB;" width="48.389" height="14.891"/>
		<rect x="126.713" y="179.1" style="fill:#C6CBCB;" width="48.389" height="14.889"/>
		<rect x="126.713" y="156.765" style="fill:#C6CBCB;" width="48.389" height="14.889"/>
		<rect x="126.713" y="134.433" style="fill:#C6CBCB;" width="48.389" height="14.888"/>
	</g>
	<path style="opacity:0.25;fill:#D1D5D5;enable-background:new    ;" d="M110.443,28.896c-2.513,0-4.552,2.193-4.552,4.9V242.89
		c0,2.707,2.039,4.9,4.552,4.9h63.769L329.034,28.896H110.443L110.443,28.896z"/>
	<circle style="fill:#E2E5E7;" cx="243.966" cy="365.64" r="95.771"/>
	<circle style="fill:#C6CBCB;" cx="243.967" cy="365.64" r="36.825"/>
	<g>
		<polygon style="fill:#C6CBCB;" points="315.284,365.642 308.742,369.417 302.201,373.194 302.201,365.642 302.201,358.086 
			308.742,361.864 		"/>
		<polygon style="fill:#C6CBCB;" points="326.206,365.642 319.662,369.417 313.122,373.194 313.122,365.642 313.122,358.086 
			319.662,361.864 		"/>
		<path style="fill:#C6CBCB;" d="M327.731,373.427c0,0.843-0.683,1.526-1.525,1.526l0,0c-0.842,0-1.525-0.684-1.525-1.526v-15.573
			c0-0.843,0.684-1.526,1.525-1.526l0,0c0.843,0,1.525,0.684,1.525,1.526V373.427z"/>
	</g>
	<g>
		<polygon style="fill:#C6CBCB;" points="172.651,365.642 179.193,369.417 185.733,373.194 185.733,365.642 185.733,358.086 
			179.193,361.864 		"/>
		<polygon style="fill:#C6CBCB;" points="161.73,365.642 168.272,369.417 174.813,373.194 174.813,365.642 174.813,358.086 
			168.272,361.864 		"/>
		<path style="fill:#C6CBCB;" d="M160.203,373.427c0,0.843,0.683,1.526,1.526,1.526l0,0c0.842,0,1.524-0.684,1.524-1.526v-15.573
			c0-0.843-0.683-1.526-1.524-1.526l0,0c-0.844,0-1.526,0.684-1.526,1.526V373.427z"/>
	</g>
	<g>
		<polygon style="fill:#C6CBCB;" points="243.478,440.074 236.934,443.85 230.394,447.626 230.394,440.074 230.394,432.519 
			236.934,436.297 		"/>
		<g>
			<path style="fill:#C6CBCB;" d="M250.458,446.069c0,0.648-0.684,1.175-1.526,1.175l0,0c-0.842,0-1.525-0.526-1.525-1.175v-11.993
				c0-0.649,0.684-1.176,1.525-1.176l0,0c0.843,0,1.526,0.526,1.526,1.176V446.069z"/>
			<path style="fill:#C6CBCB;" d="M257.54,446.069c0,0.648-0.683,1.175-1.526,1.175l0,0c-0.841,0-1.524-0.526-1.524-1.175v-11.993
				c0-0.649,0.684-1.176,1.524-1.176l0,0c0.844,0,1.526,0.526,1.526,1.176V446.069z"/>
		</g>
	</g>
	<g>
		<path style="fill:#C6CBCB;" d="M226.95,303.321c-0.099-2.118-0.22-4.669-0.196-6.885h-0.074c-0.533,1.995-1.213,4.208-1.942,6.277
			l-2.41,7.101h-2.287l-2.188-7.003c-0.631-2.096-1.214-4.331-1.653-6.375h-0.048c-0.074,2.142-0.172,4.743-0.292,6.979
			l-0.364,6.594h-2.798l1.094-16.395h3.94l2.141,6.593c0.583,1.92,1.094,3.867,1.508,5.689h0.073
			c0.438-1.774,0.999-3.793,1.63-5.715l2.263-6.567h3.892l0.948,16.395h-2.919L226.95,303.321z"/>
		<path style="fill:#C6CBCB;" d="M242.403,302.737h-6.18v4.814h6.91v2.458h-9.898v-16.395h9.533v2.457h-6.545v4.232h6.18
			L242.403,302.737L242.403,302.737z"/>
		<path style="fill:#C6CBCB;" d="M245.743,310.01v-16.395h3.429l4.233,7.029c1.071,1.823,2.043,3.723,2.796,5.498h0.05
			c-0.219-2.188-0.268-4.307-0.268-6.811v-5.717h2.772v16.395h-3.113l-4.279-7.225c-1.048-1.799-2.118-3.794-2.921-5.643
			l-0.098,0.023c0.123,2.119,0.17,4.282,0.17,6.981v5.862h-2.771L245.743,310.01L245.743,310.01z"/>
		<path style="fill:#C6CBCB;" d="M265.185,293.615v9.559c0,3.211,1.338,4.693,3.357,4.693c2.162,0,3.453-1.482,3.453-4.693v-9.559
			h2.991v9.363c0,5.061-2.602,7.299-6.542,7.299c-3.795,0-6.253-2.117-6.253-7.273v-9.389H265.185z"/>
	</g>
	<path style="opacity:0.04;fill:#586A73;enable-background:new    ;" d="M82.014,481.74c-14.64,8.335-35.891-1.384-47.464-21.71
		c-11.572-20.327-9.084-43.562,5.556-51.896c5.44-3.097,11.794-3.702,18.224-2.194c0,0-15.225-1.595-21.8,13.494
		c-6.575,15.088-1.802,38.941,13.825,51.932S82.014,481.74,82.014,481.74z"/>
	<path style="opacity:0.41;fill:#D1D5D5;enable-background:new    ;" d="M444.388,469.352
		c-23.98,17.771-32.325,20.047-45.223,21.563c-8.905,1.048-22.973-1.302-30.829-2.856L361.9,511.87
		c11.095-0.295,35.29-3.383,43.829-6.539c13.342-4.935,28.125-16.414,29.426-17.343c4.552-3.252,35.229-27.839,42.585-34.299
		c0.227-0.199,0.432-0.381,0.612-0.544c5.472-4.945,4.389-10.968,2.526-14.281C473.436,445.793,460.024,457.765,444.388,469.352z"/>
	<path style="fill:#C6CBCB;" d="M369.132,507.138c-0.69,3.307-3.928,5.423-7.231,4.731l-3.321-0.695
		c-3.305-0.69-5.422-3.927-4.731-7.232l15.142-72.376c0.692-3.304,3.93-5.423,7.232-4.729l3.322,0.695
		c3.306,0.69,5.422,3.928,4.731,7.232L369.132,507.138z"/>
</g>
<g>
</g>
<g>
</g>
<g>
</g>
<g>
</g>
<g>
</g>
<g>
</g>
<g>
</g>
<g>
</g>
<g>
</g>
<g>
</g>
<g>
</g>
<g>
</g>
<g>
</g>
<g>
</g>
<g>
</g>
</svg>
