<?xml version="1.0" encoding="iso-8859-1"?>
<!-- Generator: Adobe Illustrator 19.0.0, SVG Export Plug-In . SVG Version: 6.00 Build 0)  -->
<svg version="1.1" id="Layer_1" xmlns="http://www.w3.org/2000/svg" xmlns:xlink="http://www.w3.org/1999/xlink" x="0px" y="0px"
	 viewBox="0 0 512.001 512.001" style="enable-background:new 0 0 512.001 512.001;" xml:space="preserve">
<g>
	<path style="fill:#D1D5D5;" d="M512.001,456.413c0,30.701-24.501,55.588-54.726,55.588H54.726C24.501,512,0,487.114,0,456.413
		V95.156c0-30.699,24.501-55.587,54.726-55.587h402.549c30.225,0,54.726,24.888,54.726,55.587L512.001,456.413L512.001,456.413z"/>
	<path style="fill:#E2E5E7;" d="M512.001,416.843c0,30.701-24.501,55.588-54.726,55.588H54.726C24.501,472.431,0,447.544,0,416.843
		V55.589C0,24.888,24.501,0.001,54.726,0.001h402.549c30.225,0,54.726,24.887,54.726,55.588L512.001,416.843L512.001,416.843z"/>
	<g>
		<rect x="125.422" y="0.001" style="fill:#586A73;" width="14.924" height="472.431"/>
	</g>
	<g>
		<rect x="248.539" y="0.001" style="fill:#586A73;" width="14.924" height="472.431"/>
	</g>
	<g>
		<rect x="371.656" y="0.001" style="fill:#586A73;" width="14.925" height="472.431"/>
	</g>
	<g>
		<rect x="371.656" y="472.431" style="fill:#C6CBCB;" width="14.925" height="39.569"/>
	</g>
	<g>
		<rect x="248.539" y="472.431" style="fill:#C6CBCB;" width="14.924" height="39.569"/>
	</g>
	<g>
		<rect x="125.422" y="472.431" style="fill:#C6CBCB;" width="14.924" height="39.569"/>
	</g>
	<g>
		<rect x="125.422" y="0.001" style="fill:#2D404E;" width="7.462" height="472.431"/>
	</g>
	<g>
		<rect x="248.539" y="0.001" style="fill:#2D404E;" width="7.462" height="472.431"/>
	</g>
	<g>
		<rect x="371.656" y="0.001" style="fill:#2D404E;" width="7.462" height="472.431"/>
	</g>
	<g>
		<path style="opacity:0.15;fill:#253744;enable-background:new    ;" d="M100.944,245.297h58.768c4.616,0,8.347-4.698,8.347-10.494
			V0.001H92.598v234.802C92.598,240.598,96.339,245.297,100.944,245.297z"/>
		<path style="opacity:0.15;fill:#253744;enable-background:new    ;" d="M224.067,245.297h58.768c4.615,0,8.347-4.698,8.347-10.494
			V0.001h-75.461v234.802C215.72,240.598,219.461,245.297,224.067,245.297z"/>
		<path style="opacity:0.15;fill:#253744;enable-background:new    ;" d="M347.19,245.297h58.767c4.616,0,8.347-4.698,8.347-10.494
			V0.001h-75.461v234.802C338.842,240.598,342.583,245.297,347.19,245.297z"/>
		<path style="fill:#2D404E;" d="M105.492,236.215h54.783c4.305,0,7.783-4.524,7.783-10.106V0.001h-70.35v226.108
			C97.709,231.691,101.197,236.215,105.492,236.215z"/>
		<path style="fill:#2D404E;" d="M228.614,236.215h54.774c4.304,0,7.792-4.524,7.792-10.106V0.001h-70.359v226.108
			C220.821,231.691,224.31,236.215,228.614,236.215z"/>
		<path style="fill:#2D404E;" d="M351.727,236.215h54.783c4.305,0,7.783-4.524,7.783-10.106V0.001h-70.35v226.108
			C343.943,231.691,347.432,236.215,351.727,236.215z"/>
	</g>
</g>
<g>
</g>
<g>
</g>
<g>
</g>
<g>
</g>
<g>
</g>
<g>
</g>
<g>
</g>
<g>
</g>
<g>
</g>
<g>
</g>
<g>
</g>
<g>
</g>
<g>
</g>
<g>
</g>
<g>
</g>
</svg>
