<?xml version="1.0" encoding="iso-8859-1"?>
<!-- Generator: Adobe Illustrator 19.0.0, SVG Export Plug-In . SVG Version: 6.00 Build 0)  -->
<svg version="1.1" id="Layer_1" xmlns="http://www.w3.org/2000/svg" xmlns:xlink="http://www.w3.org/1999/xlink" x="0px" y="0px"
	 viewBox="0 0 512.001 512.001" style="enable-background:new 0 0 512.001 512.001;" xml:space="preserve">
<g>
	<path style="fill:#2D404E;" d="M444.116,465.995c0,25.409-20.598,46.006-46.006,46.006H113.89
		c-25.408,0-46.006-20.597-46.006-46.006V46.006C67.884,20.598,88.482,0,113.89,0h284.221c25.408,0,46.006,20.598,46.006,46.006
		v419.989L444.116,465.995L444.116,465.995z"/>
	<path style="opacity:0.31;fill:#253744;enable-background:new    ;" d="M352.805,304.934
		c-27.026,53.464-92.275,74.896-145.739,47.871s-74.896-92.274-47.871-145.737c0,0,6.479,60.945,59.905,95.573
		S352.805,304.934,352.805,304.934z"/>
	<circle style="fill:#253744;" cx="249.074" cy="259.958" r="136.039"/>
	<g>
		<circle style="fill:#E2E5E7;" cx="255.999" cy="256.001" r="132.082"/>
		<circle style="fill:#D1D5D5;" cx="255.999" cy="256.001" r="114.273"/>
		<circle style="fill:#253744;" cx="255.999" cy="256.001" r="108.469"/>
		<circle style="fill:#C6CBCB;" cx="255.999" cy="256.001" r="82.921"/>
		<circle style="fill:#586A73;" cx="255.999" cy="256.001" r="46.639"/>
	</g>
	<circle style="fill:#253744;" cx="253.561" cy="447.512" r="39.34"/>
	<circle style="fill:#253744;" cx="253.774" cy="69.156" r="39.126"/>
	<g>
		<g>
			<circle style="fill:#E2E5E7;" cx="256" cy="445.072" r="36.9"/>
			<circle style="fill:#253744;" cx="255.999" cy="445.072" r="25.31"/>
			<path style="fill:#2D404E;" d="M234.437,431.818c7.321-11.91,22.907-15.629,34.817-8.309
				c11.907,7.318,15.629,22.907,8.309,34.817c0,0,2.231-11.695-7.619-22.084C258.297,423.963,234.437,431.818,234.437,431.818z"/>
		</g>
		<g>
			<circle style="fill:#E2E5E7;" cx="256" cy="66.929" r="36.9"/>
			<circle style="fill:#253744;" cx="255.999" cy="66.929" r="25.31"/>
			<circle style="opacity:0.24;fill:#E2E5E7;enable-background:new    ;" cx="255.999" cy="66.929" r="18.014"/>
			<path style="opacity:0.24;fill:#E2E5E7;enable-background:new    ;" d="M236.293,51.046c-8.772,10.886-7.06,26.818,3.823,35.59
				l31.765-39.412C261,38.453,245.065,40.162,236.293,51.046z"/>
		</g>
	</g>
	<g>
		<g>
			<circle style="fill:#586A73;" cx="113.493" cy="46.821" r="9.732"/>
			<circle style="fill:#586A73;" cx="398.507" cy="46.821" r="9.732"/>
		</g>
		<g>
			<circle style="fill:#586A73;" cx="113.493" cy="465.18" r="9.732"/>
			<circle style="fill:#586A73;" cx="398.507" cy="465.18" r="9.732"/>
		</g>
	</g>
</g>
<g>
</g>
<g>
</g>
<g>
</g>
<g>
</g>
<g>
</g>
<g>
</g>
<g>
</g>
<g>
</g>
<g>
</g>
<g>
</g>
<g>
</g>
<g>
</g>
<g>
</g>
<g>
</g>
<g>
</g>
</svg>
