<?xml version="1.0" encoding="iso-8859-1"?>
<!-- Generator: Adobe Illustrator 19.0.0, SVG Export Plug-In . SVG Version: 6.00 Build 0)  -->
<svg version="1.1" id="Layer_1" xmlns="http://www.w3.org/2000/svg" xmlns:xlink="http://www.w3.org/1999/xlink" x="0px" y="0px"
	 viewBox="0 0 512.001 512.001" style="enable-background:new 0 0 512.001 512.001;" xml:space="preserve">
<g>
	<path style="fill:#2D404E;" d="M512.001,415.628c0,14.715-11.928,26.643-26.642,26.643H26.642C11.929,442.271,0,430.342,0,415.628
		V96.374c0-14.715,11.929-26.643,26.642-26.643h458.717c14.714,0,26.642,11.928,26.642,26.643L512.001,415.628L512.001,415.628z"/>
	<path style="fill:#253744;" d="M497.536,406.608c0,13.886-11.252,25.139-25.135,25.139h-432.8
		c-13.884,0-25.136-11.253-25.136-25.139V105.39c0-13.881,11.252-25.136,25.136-25.136h432.8c13.883,0,25.135,11.255,25.135,25.136
		V406.608z"/>
	<path style="fill:#E2E5E7;" d="M488.558,401.012c0,13.368-10.835,24.201-24.202,24.201H47.645
		c-13.367,0-24.202-10.833-24.202-24.201V110.989c0-13.367,10.835-24.202,24.202-24.202h416.711
		c13.367,0,24.202,10.835,24.202,24.202L488.558,401.012L488.558,401.012z"/>
	<circle style="fill:#253744;" cx="174.129" cy="246.975" r="132.471"/>
	<circle style="fill:#2D404E;" cx="174.129" cy="246.975" r="119.297"/>
	<path style="fill:#253744;" d="M280.269,246.975c0,58.618-47.522,106.142-106.142,106.142c-58.616,0-106.14-47.523-106.14-106.142
		c0-58.617,47.523-106.14,106.14-106.14C232.747,140.835,280.269,188.358,280.269,246.975z"/>
	<path style="fill:#2D404E;" d="M267.131,246.975c0,51.362-41.639,93.003-93.003,93.003c-51.36,0-93.003-41.641-93.003-93.003
		c0-51.36,41.643-93.001,93.003-93.001C225.492,153.974,267.131,195.614,267.131,246.975z"/>
	<path style="fill:#253744;" d="M253.668,246.975c0,43.928-35.612,79.543-79.54,79.543c-43.927,0-79.544-35.615-79.544-79.543
		c0-43.929,35.617-79.541,79.544-79.541C218.056,167.434,253.668,203.046,253.668,246.975z"/>
	<path style="fill:#2D404E;" d="M237.682,246.975c0,35.099-28.459,63.554-63.555,63.554c-35.101,0-63.557-28.455-63.557-63.554
		c0-35.101,28.456-63.552,63.557-63.552C209.223,183.423,237.682,211.874,237.682,246.975z"/>
	<path style="fill:#586A73;" d="M414.648,355.172c0,6.132-6.293,11.101-14.062,11.101l0,0c-7.765,0-14.061-4.969-14.061-11.101
		V209.227c0-6.132,6.296-11.102,14.061-11.102l0,0c7.77,0,14.062,4.97,14.062,11.102V355.172z"/>
	<path style="fill:#253744;" d="M397.305,353.03c0,1.022,1.466,1.849,3.281,1.849l0,0c1.817,0,3.283-0.826,3.283-1.849V211.365
		c0-1.022-1.466-1.849-3.283-1.849l0,0c-1.815,0-3.281,0.826-3.281,1.849V353.03z"/>
	<path style="fill:#48B19B;" d="M420.076,320.865c0,7.918-6.415,14.333-14.331,14.333h-10.314c-7.916,0-14.333-6.415-14.333-14.333
		l0,0c0-7.914,6.417-14.33,14.333-14.33h10.314C413.661,306.535,420.076,312.951,420.076,320.865L420.076,320.865z"/>
	<path style="fill:#586A73;" d="M465.713,355.172c0,6.132-6.294,11.101-14.062,11.101l0,0c-7.765,0-14.061-4.969-14.061-11.101
		V209.227c0-6.132,6.296-11.102,14.061-11.102l0,0c7.768,0,14.062,4.97,14.062,11.102V355.172z"/>
	<path style="fill:#253744;" d="M465.713,390.177c0,2.657-2.154,4.811-4.811,4.811H311.41c-2.656,0-4.811-2.153-4.811-4.811l0,0
		c0-2.656,2.154-4.811,4.811-4.811h149.492C463.558,385.366,465.713,387.521,465.713,390.177L465.713,390.177z"/>
	<circle style="fill:#EB8923;" cx="446.101" cy="390.177" r="8.51"/>
	<polygon style="fill:#DF584C;" points="465.713,177.421 465.713,177.421 386.156,177.421 386.156,177.421 386.156,155.978 
		386.156,155.978 465.713,155.978 465.713,155.978 	"/>
	<polygon style="fill:#EB8923;" points="465.713,146.443 465.713,146.443 386.156,146.443 386.156,146.443 386.156,124.999 
		386.156,124.999 465.713,124.999 465.713,124.999 	"/>
	<g>
		<g>
			<circle style="fill:#C6CBCB;" cx="41.26" cy="104.978" r="5.921"/>
			<circle style="fill:#C6CBCB;" cx="470.743" cy="104.978" r="5.92"/>
		</g>
		<g>
			<circle style="fill:#C6CBCB;" cx="41.26" cy="407.025" r="5.921"/>
			<circle style="fill:#C6CBCB;" cx="470.743" cy="407.025" r="5.92"/>
		</g>
	</g>
	<path style="fill:#253744;" d="M448.368,353.03c0,1.022,1.467,1.849,3.283,1.849l0,0c1.817,0,3.283-0.826,3.283-1.849V211.365
		c0-1.022-1.466-1.849-3.283-1.849l0,0c-1.816,0-3.283,0.826-3.283,1.849V353.03z"/>
	<path style="fill:#DF584C;" d="M471.141,282.197c0,7.918-6.418,14.332-14.334,14.332h-10.313c-7.915,0-14.333-6.414-14.333-14.332
		l0,0c0-7.914,6.418-14.33,14.333-14.33h10.313C464.723,267.867,471.141,274.283,471.141,282.197L471.141,282.197z"/>
	<circle style="fill:#253744;" cx="174.129" cy="246.975" r="49.759"/>
	<circle style="fill:#48B19B;" cx="174.129" cy="246.975" r="46.109"/>
	<path style="fill:#253744;" d="M180.084,246.975c0,3.29-2.664,5.956-5.956,5.956c-3.288,0-5.953-2.666-5.953-5.956
		c0-3.288,2.665-5.954,5.953-5.954C177.42,241.021,180.084,243.687,180.084,246.975z"/>
	<path style="fill:#253744;" d="M304.929,268.057l-0.894,4.977l-24.941,21.981c0,0,1.215,5.173-2.425,8.919
		s-13.094,12.402-15.77,14.317s-10.73,1.449-14.641-4.204L304.929,268.057z"/>
	<path style="fill:#48B19B;" d="M316.933,198.125c0,0,0,29.609,0,37.011c0,7.399-1.688,11.169-7.608,17.795
		c-5.92,6.625-42.183,40.154-42.183,40.154s-6.544,2.771-3.704,6.929c2.843,4.157,6.419,0,6.419,0S312.21,262.31,316.933,256
		c4.725-6.312,7.194-13.218,7.194-21.112c0-7.894,0-36.764,0-36.764L316.933,198.125L316.933,198.125z"/>
	<path style="fill:#49A893;" d="M321.407,198.125h2.721c0,0,0,28.869,0,36.764c0,7.895-2.47,14.801-7.194,21.112
		c-4.724,6.31-47.076,44.013-47.076,44.013s-3.576,4.157-6.419,0c0,0,1.148,2.138,5.19-1.43c4.043-3.567,41.858-38.55,45.426-42.583
		s8.324-9.503,8.324-21.157S321.407,198.125,321.407,198.125z"/>
	<path style="fill:#48B19B;" d="M259.787,316.477c-3.461,3.11-9.518,2.026-13.528-2.43l0,0c-4.01-4.458-4.451-10.596-0.988-13.71
		l14.55-13.086c3.462-3.113,9.519-2.03,13.526,2.428l0,0c4.012,4.458,4.451,10.596,0.989,13.709L259.787,316.477z"/>
	<path style="fill:#49A893;" d="M250.982,317.423c3.181,1.317,6.545,1.084,8.805-0.946l14.549-13.089
		c2.082-1.872,2.742-4.838,2.075-7.874L250.982,317.423z"/>
	<path style="fill:#48B19B;" d="M356.924,135.721c0-19.62-15.906-35.523-35.521-35.523c-19.619,0-35.525,15.903-35.525,35.523
		c0,15.833,10.363,29.241,24.672,33.828v20.466c0,5.992,4.856,10.852,10.854,10.852c5.994,0,10.852-4.859,10.852-10.852v-20.466
		C346.56,164.962,356.924,151.554,356.924,135.721z"/>
	<circle style="fill:#2D404E;" cx="321.401" cy="135.721" r="20.253"/>
	<path style="fill:#49A893;" d="M321.402,200.866c5.994,0,10.852-4.859,10.852-10.852v-20.466
		c14.307-4.587,24.67-17.995,24.67-33.828c0-11.266-5.246-21.307-13.426-27.814c0,0,10.917,12.25,9.978,27.814
		c-0.893,14.811-7.899,26.018-25.388,29.794c0,0,0,20.34,0,24.858C328.088,198.125,321.402,200.866,321.402,200.866z"/>
	<path style="fill:#253744;" d="M335.564,150.198c-7.998,7.823-20.818,7.686-28.642-0.311c-7.823-7.998-7.682-20.821,0.316-28.645
		c0,0-4.178,5.464-0.64,17.366c3.538,11.902,15.882,15.557,21.689,14.224C334.096,151.501,335.564,150.198,335.564,150.198z"/>
</g>
<g>
</g>
<g>
</g>
<g>
</g>
<g>
</g>
<g>
</g>
<g>
</g>
<g>
</g>
<g>
</g>
<g>
</g>
<g>
</g>
<g>
</g>
<g>
</g>
<g>
</g>
<g>
</g>
<g>
</g>
</svg>
